<svg xmlns="http://www.w3.org/2000/svg" viewBox="0 0 422.88 162.37"><defs><style>.cls-1{fill:#231815;}</style></defs><title>logo_sun02</title><g id="レイヤー_2" data-name="レイヤー 2"><g id="レイヤー_1-2" data-name="レイヤー 1"><path id="time" class="cls-1" d="M396.18,109.8A35,35,0,0,1,380.42,126a22.46,22.46,0,0,1-15.49,1.94,19.66,19.66,0,0,1-10.79-6.79c-2.1-2.4-4.35-4.71-6.22-7.28a43.57,43.57,0,0,1-7.14-15.27c-.85-3.44-2.14-6.77-3.3-10.13a1.31,1.31,0,0,0-1.1-.67,36.56,36.56,0,0,0-16.11,8.41,7.65,7.65,0,0,0-1.49,1.68c-1.68,2.95-3.26,2.84-6.09,1A45,45,0,0,0,299,93.08a13.45,13.45,0,0,0-8.26.55,11.57,11.57,0,0,1-2.86.3,12.81,12.81,0,0,1,.36-2.87c1.3-3.52,2.52-7.09,4.16-10.45a83.58,83.58,0,0,1,5.49-9.29c2-3,4.21-5.87,6.38-8.75A31.28,31.28,0,0,1,312,55.41c2.54-1.7,5-3.59,7.59-5.16a65.6,65.6,0,0,1,6.94-3.41c1-.42,1.23-.91,1-1.89-.47-1.71-.92-3.43-1.28-5.17a4.33,4.33,0,0,1,.33-1.56c.6.34,1.52.54,1.73,1.05a23.14,23.14,0,0,1,1.1,4.16c.31,1.53.81,1.78,2.48,1.29a72,72,0,0,1,9.6-1.84c5.24-.8,10.33.76,15.48,1.24a27.6,27.6,0,0,1,5.51,1.59c3.75,1.2,7.62,2.12,11.16,3.75a29.51,29.51,0,0,0,7.78,2,1.63,1.63,0,0,1,1.08,1c.09.44-.23,1.36-.52,1.42-1.49.33-1.93,1.42-2.12,2.66-.55,3.5-1.29,7,2.05,9.77.33.28.61,1.21.44,1.4-.62.66-1.43,1.57-2.18,1.58a12.88,12.88,0,0,0-6.33,2c-3.62,2.07-7.2,4.27-9.91,7.52a21.66,21.66,0,0,0-2.14,3.91c-.38.71-.79,1.41-1.1,2.16-.71,1.68-1.72,1.61-3,.6a1.13,1.13,0,0,0-.73-.31c-4.36.22-8.77-.53-13.1.67-1.23.34-1.29.8-.84,1.84,2.14,5,4.13,10.11,6.36,15.09,2.42,5.39,4.85,10.81,8.56,15.47,1.61,2,3.25,4.4,5.44,5.52,4,2.08,8.4,2.91,13,1.12a31.63,31.63,0,0,0,11.83-7.51,31.23,31.23,0,0,0,4.82-6.85Zm-79.7-17.29c0,.89,0,1.79,0,2.67a5,5,0,0,0,.3,1,8,8,0,0,0,.94-.67,26.59,26.59,0,0,1,2.48-2.39c4.44-3.25,9.09-6.09,14.61-7.11,1.43-.27,1.56-.93,1.28-2.31-1.18-6-2.22-12.08-3.22-18.14-.19-1.18-.59-1.29-1.62-1A13.86,13.86,0,0,0,323.4,70C318.31,76.61,317.15,84.5,316.48,92.51ZM370.9,50.65c-2-.69-3.88-1.27-5.71-1.95a54.75,54.75,0,0,0-15.69-3.61A83.08,83.08,0,0,0,338.8,45c-2.12.13-4.18,1-6.44,1.6,1.74.87,3.22,1.53,4.64,2.32,4.76,2.65,9.31,5.67,12.74,9.93,1.31,1.62,1.68,1,2.75.13,4.47-3.53,9.92-5.07,15.06-7.22C368.53,51.32,369.58,51.07,370.9,50.65ZM321.76,52c-.06-.15-.12-.38-.15-.37a2.76,2.76,0,0,0-1.13.25c-2.52,1.72-5,3.45-7.51,5.25a26.35,26.35,0,0,0-3.91,3.2,121.83,121.83,0,0,0-8.43,10.21,84.5,84.5,0,0,0-8.2,14.56,3.12,3.12,0,0,0-.17.76,2.43,2.43,0,0,0,.61-.28A70.3,70.3,0,0,1,299,80.3c3.07-2.11,6.19-4.32,10.08-4.74,1.41-.16,1.91-1,2.26-2.23A39.14,39.14,0,0,1,313.79,66c2.36-4.6,5.09-9,7.67-13.5Zm31.52,31.32,2.75-.41a11.75,11.75,0,0,0-1-2.41,58.59,58.59,0,0,0-5.58-7.27,99.78,99.78,0,0,0-9.26-8c-.88-.69-2.31-.69-3.46-1.08a5.73,5.73,0,0,1-1.26-.78,17.84,17.84,0,0,0-.11,1.93,6.18,6.18,0,0,0,.34,1.59c.7,2.14,1.42,4.27,2.14,6.39,1.11,3.29,2.2,6.59,3.41,9.84a1.74,1.74,0,0,0,1.47.78C346.27,83.27,349.79,82.34,353.28,83.35Zm24-27.63.5-.14c-.24-.42-.38-1.06-.73-1.22a7.75,7.75,0,0,0-3.4-1.09,52,52,0,0,0-6.95,1.34,4.7,4.7,0,0,0-1.31.82,10.7,10.7,0,0,0,1.29,1c3.3,1.76,6.62,3.49,9.93,5.23l.52.3a3.62,3.62,0,0,0,.14-.73C377.28,59.36,377.28,57.54,377.28,55.72ZM319.85,71.15c0,.2,0,.07,0-.05a2.18,2.18,0,0,0-.71.21c-2.22,1.72-3.46,4.14-4.58,6.62-.11.25.37.95.73,1.17.2.12.94-.23,1.1-.55.59-1.14,1-2.37,1.56-3.54S319.13,72.6,319.85,71.15Zm23.4-8.06a10.63,10.63,0,0,0-1.15-.4c-.1,0-.25.19-.38.29a6.11,6.11,0,0,0,1,.56C342.8,63.58,343,63.31,343.25,63.09Z"/><path id="sun" class="cls-1" d="M408.77,26.3c.06,4.28-2,7.55-4.87,10.49-1.6,1.68-3.11,3.5-5.63,3.83-.34,0-.7.25-1,.18-3-.72-6.3-.63-8.47-3.35-2.71-3.37-4.09-7-2.51-11.41.67-1.86,1-3.82,2.7-5.17,2.95-2.32,6.12-4.34,9.84-4.8,5.62-.69,9.9,3.47,9.95,9.2ZM393.19,12.83c-1.41-2.47-2.84-4.94-4.24-7.42-.58-1-1.39-1.76-2.44-.89-.88.73-.66,1.71.11,2.68,1.38,1.76,2.58,3.66,3.87,5.49.39.55.71,1.27,1.26,1.56s1.2,0,2.16-.08C393.5,13.39,393.35,13.11,393.19,12.83Zm10.3,30.23c0,.27,0,.59.1.8,1.31,2.29,2.61,4.59,4,6.81.19.3,1.07.17,1.63.23,0-.45.19-1,0-1.34-1-2.35-2.14-4.68-3.29-7-.24-.49-.95-1.27-1.14-1.19a7.35,7.35,0,0,0-1.66,1.33ZM375.28,17.38a2,2,0,0,0,1,1.58c2.05.74,4.18,1.23,6.24,1.91.67.22,1.41,1,1.74-.13.16-.59-.17-1.81-.6-2-2.36-1-4.81-1.81-7.54-2.79C375.87,16.31,375.27,16.85,375.28,17.38Zm25.26-5.9a2.2,2.2,0,0,0,1.41-.76c.32-.38.31-1,.58-1.5,1.18-2,.52-4.7,2.41-6.52.32-.31-.14-1.51-.39-2.25-.08-.24-.9-.51-1-.44a6,6,0,0,0-1,1.66c-.71,2-1.35,4-2,6-.28.83-.55,1.66-.86,2.62C400,10.7,400.29,11.48,400.54,11.48Zm9.78,24.23a3,3,0,0,0,.36,2,45.79,45.79,0,0,0,4.05,4.31,5.46,5.46,0,0,0,1.88.76,15.91,15.91,0,0,0,0-2.29c-.05-.35-.44-.67-.69-1-1.16-1.42-2.31-2.84-3.49-4.24a8,8,0,0,0-1.11-.82C410.92,34.94,410.37,35.3,410.32,35.71ZM381,32.32c-1.92.41-3.86.72-5.72,1.29a2.06,2.06,0,0,0-.89,1.72c0,.44,1,1.25,1.33,1.16a62.85,62.85,0,0,0,6.57-1.85c.51-.17.86-.83,1.29-1.27-.58-.32-1.15-.68-1.76-.95-.2-.09-.51.07-.78.12Zm37.19-5.8c1,0,2.06.06,3.08,0a2.11,2.11,0,0,0,1.39-.58c.67-.88-.06-1.83-1.49-1.93a51.27,51.27,0,0,0-6.06-.25c-.56,0-1.08,1-1.61,1.54.47.46.88,1.21,1.42,1.31a16.19,16.19,0,0,0,3.27.07ZM416.87,9.15c-.62.31-1.23.64-1.86.93-1.44.68-2.92,1.27-4.3,2a4.12,4.12,0,0,0-1.43,1.58c-.14.25.2,1.11.42,1.15a5.88,5.88,0,0,0,1.91-.1c.18,0,.33-.25.51-.33,1.67-.78,2.93-2.5,5.09-2.24.18,0,.44-.51.69-.83C417.52,10.55,417.2,9.85,416.87,9.15ZM389.38,41.74a5.54,5.54,0,0,0-1.34.88c-1.75,1.36-3.54,2.67-5.19,4.13-.48.44-.56,1.32-.83,2,.67,0,1.5.21,2-.1a50.16,50.16,0,0,0,5.13-4,8.64,8.64,0,0,0,1.28-2.44C390,42,389.6,41.66,389.38,41.74Z"/><path class="cls-1" d="M41.23,65.32q2.77-.25,3.38,2.16a16.5,16.5,0,0,1,.19,5.85,43.93,43.93,0,0,1-1.52,7.16C42.55,83,42,85,41.56,86.53q-.45,1.73-1.35,5.12c-.59,2.26-1.25,4.73-2,7.4s-1.45,5.42-2.24,8.26-1.51,5.43-2.17,7.77-1.2,4.3-1.61,5.86-.64,2.42-.68,2.59a13.33,13.33,0,0,0,1.5-2.65q1.19-2.41,2.89-5.8t3.75-7.21c1.36-2.55,2.71-4.9,4-7,.15-.25.67-1.24,1.58-3a43.63,43.63,0,0,1,3.39-5.37,27.1,27.1,0,0,1,4.55-4.87,5.83,5.83,0,0,1,5.2-1.48q2.35-.5,3,3.2a40.09,40.09,0,0,1,.27,9.75q-.42,6-1.57,13.44t-2.23,14.06q-1.08,6.66-1.82,11.6a24.51,24.51,0,0,0-.48,6.28c.85,1.73,2.55,1.85,5.08.37a55.57,55.57,0,0,0,9.19-7.27,2.83,2.83,0,0,1-.07,1.42,8.57,8.57,0,0,1-1.17,2.59,20.75,20.75,0,0,1-3,3.57,39.94,39.94,0,0,1-5.54,4.38c-3.35,1.48-5.8,1.66-7.36.56s-2.34-2.9-2.34-5.37q.07-1.23.75-5.67c.45-3,1-6.41,1.63-10.36s1.26-8.06,1.89-12.34,1.16-8.21,1.58-11.83a77.07,77.07,0,0,0,.61-8.88c0-2.3-.32-3.38-.94-3.21-.41-.33-1-.1-1.78.68a22.84,22.84,0,0,0-2.68,3.39c-1,1.48-2.09,3.21-3.22,5.18l-3.41,5.92c-1.14,2-2.15,3.8-3,5.49s-1.64,3-2.23,4q-2.34,4.2-4.11,7.65c-1.18,2.3-2.37,4.77-3.55,7.4s-2.43,5.61-3.72,9-2.72,7.33-4.28,12c-1.69.16-2.7,0-3-.62a5,5,0,0,0-1.68-1.6c.41-1.57,1.1-4.07,2.05-7.53s2-7.34,3.13-11.65,2.35-8.84,3.64-13.57,2.47-9.14,3.56-13.25c0-.17.33-1,.86-2.6s1.14-3.45,1.81-5.67S35.6,92,36.39,89.31s1.44-5.25,2-7.71.9-4.67,1.12-6.6a7.54,7.54,0,0,0-.33-4.13c-.83-.57-2.1-.21-3.8,1.11a46.24,46.24,0,0,0-5.86,5.61Q26.19,81.22,22.6,86t-6.83,9.5q-3.23,4.75-5.76,9c-1.69,2.84-2.93,5.08-3.69,6.73a6.43,6.43,0,0,1-1.62,1.72,8,8,0,0,1-2,1.11,4,4,0,0,1-1.75.31,1,1,0,0,1-1-.68q2.28-4.44,5.51-9.68t7-10.61Q16.27,88,20.24,83A109.49,109.49,0,0,1,28,74a53.61,53.61,0,0,1,7.2-6.29Q38.65,65.32,41.23,65.32Z"/><path class="cls-1" d="M74.75,146.84c.46.41,1.6-.29,3.39-2.1a53.33,53.33,0,0,0,5.66-7,81.84,81.84,0,0,0,5.47-9.06,25.76,25.76,0,0,0,3-8.39,1.19,1.19,0,0,1,.86-.92,5.18,5.18,0,0,1,1.47-.19,10.18,10.18,0,0,1,1.57.12,8.07,8.07,0,0,1,1.11.25c-.65,1.81-1.47,4.1-2.49,6.85s-1.92,5.48-2.71,8.2a50.14,50.14,0,0,0-1.65,7.4c-.3,2.22,0,3.66.9,4.31s1.81.54,3.18-.12a26.73,26.73,0,0,0,4.1-2.47c1.37-1,2.61-1.87,3.72-2.64s1.76-1.06,1.94-.81a14.49,14.49,0,0,1-3.17,4.07,24,24,0,0,1-4.51,3.33,17.73,17.73,0,0,1-4.83,1.91,6.35,6.35,0,0,1-4.08-.19c-.47-.08-.74-.54-.79-1.41a18.34,18.34,0,0,1,0-3c.1-1.15.26-2.38.48-3.7s.39-2.51.51-3.58q-1.5,2-3.39,4.44c-1.25,1.65-2.49,3.21-3.7,4.69s-2.33,2.75-3.35,3.82a7,7,0,0,1-2.34,1.85c-1.82.66-3.13.8-3.94.43a2.31,2.31,0,0,1-1.44-1.54c-.43-.25-.55-1.09-.38-2.52s.49-3.28,1-5.5,1.06-4.72,1.8-7.52,1.49-5.65,2.26-8.57,1.49-5.8,2.15-8.63,1.23-5.45,1.7-7.84a11.79,11.79,0,0,1,1.69.13,13.45,13.45,0,0,1,1.4.31,1.56,1.56,0,0,1,1,.8q-.14,2.84-2.45,10t-5.22,17.26c-.07.25-.18.73-.31,1.42A22.52,22.52,0,0,0,74,143a9.16,9.16,0,0,0,0,2.34A1.84,1.84,0,0,0,74.75,146.84Z"/><path class="cls-1" d="M128.27,115.51q5.4-.36,10.63-.8c3.49-.28,7.12-.6,10.91-.92a1.24,1.24,0,0,1,1.26,1.29c0,.78-.41,1.26-1.36,1.42q-4.69.5-10.84,1.36t-11.8,2.22c-.51,2.54-1.12,5.16-1.82,7.83s-1.34,5.3-1.9,7.89-1,5.1-1.25,7.52a28,28,0,0,0,0,6.73,4.53,4.53,0,0,0,2.81,2.46,6.05,6.05,0,0,0,3.31-.18,11.71,11.71,0,0,0,3.29-1.73c1.07-.78,2-1.54,2.89-2.28.72-.58,1.2-.58,1.41,0s-.35,1.43-1.72,2.59c-.65.57-1.43,1.19-2.34,1.85a14.23,14.23,0,0,1-3.09,1.66,13.44,13.44,0,0,1-3.69.86,10.33,10.33,0,0,1-4-.43q-2.64-.73-3-4.56a40.39,40.39,0,0,1,.32-8.94q.68-5.11,1.89-10.67t2-10q-5.56.5-8.19.86c-1.75.25-3,.42-3.76.5a2.28,2.28,0,0,1-1.46-.13,11.17,11.17,0,0,1-1.06-1.11,4.15,4.15,0,0,0,.37-1.17,3.79,3.79,0,0,1,.25-.92,1.8,1.8,0,0,1,.69-.74,5,5,0,0,1,1.83-.62,25.6,25.6,0,0,1,5.51-.55,56.14,56.14,0,0,0,7-.56c.61-2.63,1.06-4.69,1.37-6.16s.57-2.78.78-3.89.44-2.2.68-3.27.59-2.46,1-4.19a1.44,1.44,0,0,1,.92-.93,5.85,5.85,0,0,1,1.64-.37,3.27,3.27,0,0,1,1.54.25,1.17,1.17,0,0,1,.74.93,12.91,12.91,0,0,1-.36,3.26c-.3,1.44-.64,3-1,4.57s-.79,3.22-1.22,4.87S128.65,114.36,128.27,115.51Z"/><path class="cls-1" d="M147.11,113.29c.11-.74.55-.92,1.31-.55s1.55.76,2.34,1.17c-.17,1.89-.31,3.39-.44,4.5s-.28,2.16-.46,3.14-.38,2.06-.6,3.21-.5,2.68-.83,4.56a39.84,39.84,0,0,1,4.09-5.23,22,22,0,0,1,5.23-4.14,23,23,0,0,1,6.7-2.53,33.15,33.15,0,0,1,8.6-.55,3.12,3.12,0,0,1-1.12,1.67,7.87,7.87,0,0,1-3.42,1,20.37,20.37,0,0,0-6.86,2.41,30.29,30.29,0,0,0-5.65,4.13,31.11,31.11,0,0,0-4.4,5c-1.26,1.76-2.32,3.38-3.2,4.87-.28.73-.66,1.78-1.14,3.14s-.94,2.8-1.38,4.32-.88,3-1.3,4.44a15.76,15.76,0,0,0-.7,3.39,1.1,1.1,0,0,1-.81.92,6.44,6.44,0,0,1-1.65.43,3.21,3.21,0,0,1-1.57-.12c-.45-.17-.62-.45-.51-.87a202.86,202.86,0,0,0,5.09-21.88Q145.93,120.57,147.11,113.29Z"/><path class="cls-1" d="M169.77,115.27a33.35,33.35,0,0,1,5,.67,37,37,0,0,1,5.16,1.48,27.75,27.75,0,0,1,4.44,2.1,10.28,10.28,0,0,1,3.07,2.65c.74.91.95,2.28.63,4.14a25.67,25.67,0,0,1-2,6.09,53.47,53.47,0,0,1-3.71,6.85,61.18,61.18,0,0,1-4.58,6.35,30.92,30.92,0,0,1-4.68,4.69,7,7,0,0,1-3.94,1.85,6.28,6.28,0,0,1-4.23-1.3,7,7,0,0,1-2.13-3.14,12.23,12.23,0,0,1-.64-3.88,19.17,19.17,0,0,1,.25-3.52q1.35-6.54,2.93-11.59a77.71,77.71,0,0,1,3.08-8.39,9.83,9.83,0,0,0-.45-1.11c-.16-.32-.33-.64-.5-.93a3.69,3.69,0,0,0-.65-.79,6.11,6.11,0,0,0,1.18-.74A6.78,6.78,0,0,0,169.77,115.27Zm-3.3,29.35a5.89,5.89,0,0,0,.71,1,3,3,0,0,0,1.32.86,3.25,3.25,0,0,0,1.89.06,6.68,6.68,0,0,0,2.45-1.35,33.57,33.57,0,0,0,6.12-6.36,31.18,31.18,0,0,0,3.54-6.16,14.34,14.34,0,0,0,1.22-5.12,4.36,4.36,0,0,0-.94-3.21l-1.39-1a6.37,6.37,0,0,0-1.51-.8c-.64-.25-1.45-.51-2.44-.8s-2.29-.68-3.89-1.17a56.9,56.9,0,0,0-3.81,7.89,58.34,58.34,0,0,0-2.33,7.22,37.06,37.06,0,0,0-1,5.67A10,10,0,0,0,166.47,144.62Z"/><path class="cls-1" d="M195.76,108.36c.7,1.39,1.35,2.76,2,4.07s1.19,2.67,1.76,4.07,1.18,2.94,1.81,4.63,1.34,3.63,2.15,5.85c1.54-2.38,2.9-4.6,4.1-6.66a49.07,49.07,0,0,0,3.33-7,1,1,0,0,1,1.55-.49c.7.33,1.26.62,1.69.86a4.93,4.93,0,0,1-.53,2.47,28.91,28.91,0,0,1-1.68,3.33c-.67,1.15-1.35,2.24-2,3.26s-1.18,1.84-1.49,2.41l-.93,1.42c-.35.53-.68,1.09-1,1.67s-.84,1.31-1.26,2c.67,4.61,1.43,8.61,2.25,12a52.19,52.19,0,0,1,1.43,7.71c-.16.58-.66.68-1.5.31a6,6,0,0,1-2.13-1.54,50.81,50.81,0,0,0-1.64-5.92c-.66-1.89-1.28-4-1.89-6.42-.71,1.16-1.58,2.49-2.6,4s-2.06,3.09-3.14,4.69-2.16,3.19-3.23,4.75-2,3-2.86,4.31a7.94,7.94,0,0,1-2.07,1.54,3.35,3.35,0,0,1-2.33-.3q3.66-5.43,5.81-8.7c1.44-2.17,2.64-4,3.62-5.54s1.86-3,2.63-4.39,1.74-3.16,2.88-5.3a43.32,43.32,0,0,1-1.8-4.62q-.93-2.77-1.87-5.55T194.92,116a15.19,15.19,0,0,0-1.71-3.58,3.39,3.39,0,0,1,.2-2.84A1.89,1.89,0,0,1,195.76,108.36Z"/><path class="cls-1" d="M266.21,76.91c.3,1.65.49,2.71.57,3.21a10.46,10.46,0,0,1-.09,2.46c-.78-.82-1.45-1.52-2-2.09A16,16,0,0,0,262.83,79a9.57,9.57,0,0,0-2.15-1.18,19.77,19.77,0,0,0-3-.86,27.76,27.76,0,0,0-9.41.37,26.85,26.85,0,0,0-8.23,3.14,17.4,17.4,0,0,0-5.65,5.31,10.72,10.72,0,0,0-1.8,6.84,20.68,20.68,0,0,0,2.12,7.83,45,45,0,0,0,4.54,7.34,54.4,54.4,0,0,0,6,6.72q3.3,3.15,6.33,5.92t5.65,5a31.62,31.62,0,0,1,3.93,3.82c2.89-1.31,5.57-2.43,8-3.33s5-1.81,7.62-2.71h.74c.31.08.29.33-.07.74-.92.66-2,1.36-3.2,2.1s-2.48,1.5-3.75,2.27-2.52,1.55-3.75,2.29-2.32,1.4-3.29,2a14.32,14.32,0,0,1,3,6.48,8.65,8.65,0,0,1-1.38,5.67,21.91,21.91,0,0,1-5.56,5.67,93.91,93.91,0,0,1-9.66,6.23A55.94,55.94,0,0,1,242,160.4a27.77,27.77,0,0,1-7.35,1.91q-3.23.31-4.75-1.17t.17-5.55a44.24,44.24,0,0,1,10.53-12.33q6.79-5.67,15.23-11.47c.06-.24-.55-.94-1.85-2.1s-3-2.63-5-4.43-4.23-3.91-6.6-6.29a82.89,82.89,0,0,1-6.65-7.53,44.71,44.71,0,0,1-5.16-8.26,19.57,19.57,0,0,1-2.07-8.51,20.94,20.94,0,0,1,1.75-9.25,25.09,25.09,0,0,1,4.33-6.6,22.85,22.85,0,0,1,5-4.13,24.11,24.11,0,0,1,4-2q3.08-.87,6.13-1.48a20.83,20.83,0,0,1,6-.37,14.2,14.2,0,0,1,5.55,1.66A16.13,16.13,0,0,1,266.21,76.91ZM235.52,155a1,1,0,0,0,.24,1.43,4.34,4.34,0,0,0,2.72.43,23.7,23.7,0,0,0,5.3-1.18,57.43,57.43,0,0,0,8.15-3.51,26.09,26.09,0,0,0,5.95-4.56,15.56,15.56,0,0,0,3.25-4.87,6.9,6.9,0,0,0,.37-4.45,5.4,5.4,0,0,0-2.84-3.26,42.39,42.39,0,0,0-4.89,2.9q-3.51,2.28-7.3,5.24a72.81,72.81,0,0,0-7,6.16A15.18,15.18,0,0,0,235.52,155Z"/><path class="cls-1" d="M279.23,146.84q.69.61,3.38-2.1a53.33,53.33,0,0,0,5.66-7,81.9,81.9,0,0,0,5.48-9.06,25.7,25.7,0,0,0,2.94-8.39,1.2,1.2,0,0,1,.87-.92,5.16,5.16,0,0,1,1.46-.19,10.09,10.09,0,0,1,1.57.12,7.4,7.4,0,0,1,1.11.25c-.64,1.81-1.47,4.1-2.48,6.85s-1.93,5.48-2.72,8.2a48.77,48.77,0,0,0-1.64,7.4q-.45,3.33.89,4.31c.76.58,1.81.54,3.18-.12a25.8,25.8,0,0,0,4.1-2.47c1.38-1,2.62-1.87,3.73-2.64s1.75-1.06,1.93-.81a14.26,14.26,0,0,1-3.16,4.07A23.69,23.69,0,0,1,301,147.7a17.67,17.67,0,0,1-4.82,1.91,6.35,6.35,0,0,1-4.08-.19c-.48-.08-.74-.54-.8-1.41a18.45,18.45,0,0,1,.06-3c.09-1.15.25-2.38.48-3.7s.39-2.51.51-3.58L289,142.15c-1.26,1.65-2.49,3.21-3.71,4.69s-2.32,2.75-3.35,3.82a6.85,6.85,0,0,1-2.33,1.85c-1.82.66-3.13.8-3.94.43a2.29,2.29,0,0,1-1.44-1.54c-.43-.25-.56-1.09-.38-2.52s.49-3.28.95-5.5,1.06-4.72,1.8-7.52,1.49-5.65,2.26-8.57,1.48-5.8,2.15-8.63,1.23-5.45,1.69-7.84a11.93,11.93,0,0,1,1.7.13,13.45,13.45,0,0,1,1.4.31,1.56,1.56,0,0,1,1,.8q-.14,2.84-2.45,10t-5.23,17.26c-.07.25-.17.73-.31,1.42a22.52,22.52,0,0,0-.36,2.29,10.17,10.17,0,0,0,0,2.34A1.84,1.84,0,0,0,279.23,146.84Z"/><path class="cls-1" d="M319.16,114.65q-.92,3.45-1.89,6.9l-1.87,6.67-1.72,6q-.81,2.84-1.52,5.05a17.35,17.35,0,0,1,1.19-2.4c.71-1.28,1.6-2.73,2.7-4.38s2.27-3.39,3.53-5.24a50.05,50.05,0,0,1,3.83-4.93,22.59,22.59,0,0,1,3.67-3.39c1.16-.82,2.11-1.07,2.85-.74a5.12,5.12,0,0,1,2.88,3.57,17.67,17.67,0,0,1,.19,5.37c-.2,2-.47,4.25-.79,6.72a27.18,27.18,0,0,0,.17,7.77,3.81,3.81,0,0,0,1.44,2.71,8.3,8.3,0,0,0,2.4,1.23,9.16,9.16,0,0,0,2,.43c.52.05.67.19.44.44q-3.7,2.34-5.73,1.6a4.93,4.93,0,0,1-2.9-3.27,19.6,19.6,0,0,1-.93-6q-.06-3.51,0-6.78c0-2.18.05-4,0-5.55s-.26-2.29-.75-2.29c-.76.09-1.75.79-3,2.1a54.58,54.58,0,0,0-4,4.93c-1.42,2-2.86,4.14-4.3,6.48s-2.78,4.54-4,6.6-2.26,3.82-3.06,5.3-1.29,2.39-1.46,2.71a12.77,12.77,0,0,0-2.31.12c-.31.09-.68-.32-1.1-1.23q3.48-10.85,5.85-20.53t3.88-16.83c.2-.74.48-1.11.85-1.11a1.67,1.67,0,0,1,1.11.49c.36.33.74.66,1.15,1A1.86,1.86,0,0,0,319.16,114.65Z"/></g></g></svg>