<svg xmlns="http://www.w3.org/2000/svg" viewBox="0 0 57.43 21.19"><defs><style>.cls-1{fill:#fab425;}</style></defs><title>アセット 4</title><g id="レイヤー_2" data-name="レイヤー 2"><g id="レイヤー_1-2" data-name="レイヤー 1"><path class="cls-1" d="M1.88,12.14a6.41,6.41,0,0,1,4-1.27,11.68,11.68,0,0,1,2.64.36,1.41,1.41,0,0,0,.42.06c0,.34.09,1.28.21,2.19a.3.3,0,0,1-.4,0c-.23-1-.9-2.18-3.06-2.18s-4.22,1.45-4.22,4.54,2,4.86,4.43,4.86A3.19,3.19,0,0,0,9,18.6a.29.29,0,0,1,.38.06,5.67,5.67,0,0,1-.71,2,2.85,2.85,0,0,0-.52.15,8.87,8.87,0,0,1-2.36.34,6.54,6.54,0,0,1-3.71-1A4.8,4.8,0,0,1,0,16.09,5,5,0,0,1,1.88,12.14Z"/><path class="cls-1" d="M10.24,16.14a5.16,5.16,0,0,1,5.31-5.27A4.91,4.91,0,0,1,20.72,16a5.08,5.08,0,0,1-5.17,5.2A5,5,0,0,1,10.24,16.14Zm9,.31c0-2.46-1.09-5.12-3.93-5.12-1.55,0-3.57,1.06-3.57,4.33,0,2.2,1.08,5.07,4,5.07C17.53,20.73,19.23,19.39,19.23,16.45Z"/><path class="cls-1" d="M47,16.14a5.15,5.15,0,0,1,5.31-5.27A4.91,4.91,0,0,1,57.43,16a5.09,5.09,0,0,1-5.17,5.2A5,5,0,0,1,47,16.14Zm9,.31c0-2.46-1.09-5.12-3.94-5.12-1.55,0-3.56,1.06-3.56,4.33,0,2.2,1.07,5.07,4,5.07C54.24,20.73,55.94,19.39,55.94,16.45Z"/><path class="cls-1" d="M33.71,19.43c0,.6.09.95.36,1.06a.13.13,0,0,1,0,.18,3.53,3.53,0,0,0-.73.13,11.56,11.56,0,0,1-2.67.39,6.2,6.2,0,0,1-4.55-1.66,4.7,4.7,0,0,1-1.37-3.38,5.08,5.08,0,0,1,1.35-3.53,6.12,6.12,0,0,1,4.72-1.75,8.9,8.9,0,0,1,1.9.23,3.81,3.81,0,0,0,.92.13,17.36,17.36,0,0,0,.22,2.16c0,.12-.31.14-.4,0-.42-1.61-1.54-2.12-3.06-2.12a4,4,0,0,0-4.16,4.29c0,2.87,1.48,5.12,4.48,5.12.92,0,1.47-.2,1.64-.45a1.69,1.69,0,0,0,.15-.85v-.6c0-1.25-.05-1.34-1-1.44l-.66-.08c-.12-.06-.1-.32,0-.37.43,0,1.25,0,2.13,0,.58,0,1.09,0,1.58,0a.26.26,0,0,1,0,.37l-.24,0c-.63.08-.64.5-.64,1.26Z"/><path class="cls-1" d="M41.25,17.49c-.1-.33-.16-.37-.61-.37H38.39c-.37,0-.46,0-.57.36L37.3,19A6.06,6.06,0,0,0,37,20.28c0,.18.08.27.44.3l.49,0a.25.25,0,0,1,0,.38c-.39,0-.85,0-1.55-.05-.49,0-1,0-1.43.05a.3.3,0,0,1,0-.38l.49,0a1,1,0,0,0,.89-.73c.27-.69.69-1.66,1.32-3.33l1.52-4a2.17,2.17,0,0,0,.25-1.06,1.71,1.71,0,0,0,.78-.57.21.21,0,0,1,.22.14c.19.65.43,1.34.65,2L43,19c.43,1.28.62,1.5,1.26,1.58l.41,0a.31.31,0,0,1,0,.38c-.61,0-1.14-.05-1.81-.05s-1.28,0-1.71.05a.25.25,0,0,1,0-.38l.43,0c.31,0,.52-.12.52-.27a3,3,0,0,0-.19-.79Zm-3-1.32c-.12.34-.1.35.31.35h1.84c.43,0,.46-.06.33-.46L40,13.63a9.91,9.91,0,0,0-.34-.94h0a7.16,7.16,0,0,0-.36.88Z"/><path class="cls-1" d="M23.44,16.05a.71.71,0,0,1-1.42,0,.71.71,0,0,1,1.42,0Z"/><path class="cls-1" d="M45.43,16.05a.7.7,0,0,1-.7.7.7.7,0,0,1-.71-.7.71.71,0,0,1,.71-.71A.7.7,0,0,1,45.43,16.05Z"/><path class="cls-1" d="M30.62.23a9,9,0,0,0-2-.23,8.87,8.87,0,0,0-2.13.26.39.39,0,0,0-.24.51c.06.16,1.55,4.71,2.13,6.44.14.42.31.43.44,0,.56-1.73,2-6.38,2.06-6.49A.41.41,0,0,0,30.62.23Z"/><path class="cls-1" d="M35.33,3.08A9,9,0,0,0,32,.65a.39.39,0,0,0-.49.28c-.05.15-1.52,4.71-2.07,6.45-.14.43,0,.54.34.29,1.47-1.07,5.4-4,5.49-4A.4.4,0,0,0,35.33,3.08Z"/><path class="cls-1" d="M21.8,3.08A9,9,0,0,1,25.18.65a.39.39,0,0,1,.49.28c0,.15,1.52,4.71,2.07,6.45.14.43,0,.54-.34.29l-5.49-4A.4.4,0,0,1,21.8,3.08Z"/></g></g></svg>